<?xml version="1.0" standalone="no"?><!DOCTYPE svg PUBLIC "-//W3C//DTD SVG 1.1//EN" "http://www.w3.org/Graphics/SVG/1.1/DTD/svg11.dtd"><svg t="1594707893533" class="icon" viewBox="0 0 1024 1024" version="1.1" xmlns="http://www.w3.org/2000/svg" p-id="2069" xmlns:xlink="http://www.w3.org/1999/xlink" width="32" height="32"><defs><style type="text/css"></style></defs><path d="M747.132032 470.264064H553.735936V276.867968a41.735936 41.735936 0 0 0-83.471872 0V470.264064H276.867968a41.735936 41.735936 0 0 0 0 83.471872H470.264064v193.396096a41.735936 41.735936 0 0 0 83.471872 0V553.735936h193.396096a41.735936 41.735936 0 1 0 0-83.471872z" fill="#bfbfbf" p-id="2070"></path><path d="M512 0a512 512 0 1 0 512 512A512.58783 512.58783 0 0 0 512 0z m0 940.528129A428.528129 428.528129 0 1 1 940.528129 512 429.115959 429.115959 0 0 1 512 940.528129z" fill="#bfbfbf" p-id="2071"></path></svg>