<?xml version="1.0" standalone="no"?><!DOCTYPE svg PUBLIC "-//W3C//DTD SVG 1.1//EN" "http://www.w3.org/Graphics/SVG/1.1/DTD/svg11.dtd"><svg t="1594726647911" class="icon" viewBox="0 0 1024 1024" version="1.1" xmlns="http://www.w3.org/2000/svg" p-id="8836" xmlns:xlink="http://www.w3.org/1999/xlink" width="32" height="32"><defs><style type="text/css"></style></defs><path d="M785.04533333 836.24533333c-13.13066667 0-26.19733333-5.00266667-36.20266666-14.99733333l-546.13333334-546.13333333c-20-20-20-52.39466667 0-72.40533334s52.40533333-20 72.40533334 0l546.13333333 546.13333334c20 20 20 52.39466667 0 72.40533333-10.00533333 10.00533333-23.072 14.99733333-36.20266667 14.99733333z" fill="#ffffff" p-id="8837"></path><path d="M238.912 836.24533333c-13.13066667 0-26.19733333-5.00266667-36.20266667-14.99733333-20-20-20-52.39466667 0-72.40533333l546.13333334-546.13333334c20-20 52.39466667-20 72.40533333 0s20 52.39466667 0 72.40533334l-546.13333333 546.13333333c-10.00533333 10.00533333-23.072 14.99733333-36.20266667 14.99733333z" fill="#ffffff" p-id="8838"></path></svg>