<?xml version="1.0" standalone="no"?><!DOCTYPE svg PUBLIC "-//W3C//DTD SVG 1.1//EN" "http://www.w3.org/Graphics/SVG/1.1/DTD/svg11.dtd"><svg t="1595574012215" class="icon" viewBox="0 0 1134 1024" version="1.1" xmlns="http://www.w3.org/2000/svg" p-id="2520" xmlns:xlink="http://www.w3.org/1999/xlink" width="35.4375" height="32"><defs><style type="text/css"></style></defs><path d="M986.167488 0H148.807882A151.330049 151.330049 0 0 0 0 148.807882V655.763547a151.330049 151.330049 0 0 0 148.807882 148.807882h368.236453v118.541871H286.013793a50.44335 50.44335 0 1 0 0 100.8867h562.947783a50.44335 50.44335 0 0 0 0-100.8867h-231.030542v-119.046305h368.236454A151.330049 151.330049 0 0 0 1134.975369 655.763547V151.330049a151.330049 151.330049 0 0 0-148.807881-151.330049z m47.921182 655.763547a50.44335 50.44335 0 0 1-47.921182 47.921182H148.807882A50.44335 50.44335 0 0 1 100.8867 655.763547V151.330049a50.44335 50.44335 0 0 1 47.921182-50.443349h837.359606a50.44335 50.44335 0 0 1 47.921182 47.921182z" fill="#409EFF" p-id="2521"></path><path d="M892.847291 146.790148L605.320197 453.990148 403.546798 276.93399a37.832512 37.832512 0 0 0-50.44335 0L151.330049 470.13202a37.832512 37.832512 0 1 0 50.44335 54.478817l181.596059-166.463054 201.773399 178.569458a37.832512 37.832512 0 0 0 50.44335-2.522167l312.748768-335.952709a37.832512 37.832512 0 0 0-55.487684-50.44335z" fill="#409EFF" p-id="2522"></path></svg>