<?xml version="1.0" standalone="no"?><!DOCTYPE svg PUBLIC "-//W3C//DTD SVG 1.1//EN" "http://www.w3.org/Graphics/SVG/1.1/DTD/svg11.dtd"><svg t="1595487796720" class="icon" viewBox="0 0 1024 1024" version="1.1" xmlns="http://www.w3.org/2000/svg" p-id="4736" xmlns:xlink="http://www.w3.org/1999/xlink" width="32" height="32"><defs><style type="text/css"></style></defs><path d="M1024 0H0v1024h1024V0z" fill="#FFFFFF" fill-opacity=".01" p-id="4737"></path><path d="M927.872 213.312a42.56 42.56 0 0 1-42.56 42.56h-128a42.56 42.56 0 1 1 0-85.12h128c23.552 0 42.56 19.072 42.56 42.56zM586.688 85.44c23.488 0 42.56 19.072 42.56 42.56v170.688a42.56 42.56 0 0 1-85.12 0V128c0-23.488 19.008-42.56 42.56-42.56z" fill="#333333" p-id="4738"></path><path d="M629.248 213.312a42.56 42.56 0 0 1-42.56 42.56H117.312a42.56 42.56 0 1 1 0-85.12h469.376c23.488 0 42.56 19.072 42.56 42.56zM330.56 512a42.56 42.56 0 0 1-42.56 42.56H117.312a42.56 42.56 0 1 1 0-85.12H288c23.488 0 42.56 19.072 42.56 42.56zM458.688 384.128c23.488 0 42.56 19.008 42.56 42.56v170.624a42.56 42.56 0 0 1-85.12 0V426.688c0-23.552 19.008-42.56 42.56-42.56z" fill="#333333" p-id="4739"></path><path d="M970.56 512a42.56 42.56 0 0 1-42.56 42.56H458.688a42.56 42.56 0 1 1 0-85.12H928c23.488 0 42.56 19.072 42.56 42.56zM927.872 810.688a42.56 42.56 0 0 1-42.56 42.56h-128a42.56 42.56 0 1 1 0-85.12h128c23.552 0 42.56 19.008 42.56 42.56zM586.688 682.752c23.488 0 42.56 19.072 42.56 42.56V896a42.56 42.56 0 0 1-85.12 0v-170.688c0-23.488 19.008-42.56 42.56-42.56z" fill="#333333" p-id="4740"></path><path d="M629.248 810.688a42.56 42.56 0 0 1-42.56 42.56H117.312a42.56 42.56 0 1 1 0-85.12h469.376c23.488 0 42.56 19.008 42.56 42.56z" fill="#333333" p-id="4741"></path></svg>