<?xml version="1.0" standalone="no"?><!DOCTYPE svg PUBLIC "-//W3C//DTD SVG 1.1//EN" "http://www.w3.org/Graphics/SVG/1.1/DTD/svg11.dtd"><svg t="1594900382490" class="icon" viewBox="0 0 1024 1024" version="1.1" xmlns="http://www.w3.org/2000/svg" p-id="5197" xmlns:xlink="http://www.w3.org/1999/xlink" width="32" height="32"><defs><style type="text/css"></style></defs><path d="M952.234513 207.075219c-13.680581-13.455453-35.645848-13.273305-49.067532 0.407276l-538.594705 535.424502-244.131183-250.580059c-13.645788-13.420661-35.645848-13.238512-49.066509 0.407276-13.455453 13.680581-13.273305 35.611056 0.407276 49.066509L339.854315 816.924781c13.645788 13.455453 35.611056 13.273305 49.066509-0.407276l563.720965-560.375777c13.420661-13.680581 13.238512-35.645848-0.407276-49.066509z" fill="#262435" p-id="5198"></path><path d="M364.603998 844.247056h-0.034792c-13.896498 0.106424-26.999934-5.209652-36.897352-14.968923l-0.245593-0.246616-267.955798-275.003308c-20.319791-20.136619-20.543895-53.048193-0.467651-73.461105 9.741875-9.903557 22.766516-15.422248 36.675294-15.536859 13.910824-0.115634 27.025517 5.186116 36.929074 14.926968l0.25992 0.261966 231.903697 238.026139 526.096043-523.000542c9.724479-9.866718 22.704095-15.366989 36.560684-15.490809h0.031723c13.901615-0.115634 27.019377 5.194302 36.941353 14.95255 20.432355 20.098757 20.714787 53.109592 0.62524 73.587995l-0.153495 0.15452L401.211754 828.764434c-9.750061 9.871835-22.74605 15.368012-36.607756 15.482622z m-12.463869-39.575343a17.165961 17.165961 0 0 0 12.164041 4.87503h0.012279c4.632507-0.038886 8.976442-1.882883 12.235673-5.196349l0.138146-0.138146 563.626821-560.282656c6.646374-6.841825 6.541997-17.806551-0.248663-24.484648a17.245779 17.245779 0 0 0-12.31856-4.991687h-0.010233a17.171078 17.171078 0 0 0-12.184507 5.179976l-0.153496 0.154519-551.025829 547.779901-256.212336-262.978436c-3.281743-3.172249-7.607258-4.897543-12.196786-4.859682-4.640694 0.038886-8.980535 1.873674-12.220323 5.169743-6.707772 6.819313-6.616698 17.822924 0.203638 24.530696l0.25992 0.260944 267.930215 274.980795z" fill="#262435" p-id="5199"></path></svg>